<?xml version="1.0" ?>
<!-- Uploaded to: SVG Repo, www.svgrepo.com, Generator: SVG Repo Mixer Tools -->
<svg width="800px" height="800px" viewBox="0 0 64.005 64.005" data-name="Empty Beer Glass" id="Empty_Beer_Glass" xmlns="http://www.w3.org/2000/svg">
<rect fill="none" height="64.005" id="rect2317-38" transform="translate(0 0)" width="64"/>
<g id="g2182" transform="translate(12.775 3.578)">
<path d="M32.912,55.012v-9.8c3.925-.231,5.649-1.864,7.2-4.539,1.678-2.895,1.875-12.886,1.877-12.986V10.646a.975.975,0,0,0-1.008-.935H32.912V1.657H1.66V55.012H32.912m.541-42.75h5.7c.3,0,.545.332.545.738l0,14.136c0,.08-.108,9.079-1.015,11.367a5.341,5.341,0,0,1-5.231,3.608c-.3,0-.545-.332-.545-.738l0-28.372c0-.407.245-.738.545-.738m-.541,45H1.66A2.255,2.255,0,0,1-.6,55.012V1.657A2.255,2.255,0,0,1,1.66-.6H32.912a2.255,2.255,0,0,1,2.257,2.253v5.8h5.809a3.231,3.231,0,0,1,3.265,3.188V27.683q0,.02,0,.04c0,.026-.05,2.625-.319,5.607-.562,6.225-1.54,7.913-1.861,8.467-1.36,2.35-3.157,4.582-6.893,5.38v7.834a2.255,2.255,0,0,1-2.257,2.253Zm2.253-42.75,0,24.934a3.366,3.366,0,0,0,1.422-1.775c.072-.183.445-1.318.692-5.8.132-2.4.162-4.566.165-4.748l0-12.608H35.165Z" id="path2184" transform="translate(0.596 0.596)"/>
</g>
<g id="g2186" transform="translate(20.525 12.022)">
<path d="M25.839,93.161v24.558" fill="none" id="path2188" stroke="#000000" stroke-linecap="round" stroke-width="1.8" transform="translate(-25.839 -93.161)"/>
</g>
<g id="g2190" transform="translate(20.525 42.195)">
<path d="M25.839,100.546V107" fill="none" id="path2192" stroke="#000000" stroke-linecap="round" stroke-width="1.8" transform="translate(-25.839 -100.546)"/>
</g>
</svg>