<?xml version="1.0" encoding="iso-8859-1"?>
<svg version="1.1" id="Layer_1" xmlns="http://www.w3.org/2000/svg" viewBox="0 0 512.001 512.001"
    xml:space="preserve">
<g>
	<path style="fill:#CFF09E;" d="M256.004,170.558c20.151,0,20.151,15.065,40.305,15.065c20.156,0,20.156-15.065,40.305-15.065
		l-34.591-68.555V60.3h-92.045v41.703l-34.591,68.555c20.156,0,20.156,15.065,40.305,15.065
		C235.848,185.624,235.848,170.558,256.004,170.558z" />
    <rect x="204.767" y="13.641" style="fill:#CFF09E;" width="102.472" height="46.666" />
</g>
    <path style="fill:#507C5C;" d="M359.574,223.246c-7.534,0-13.641,6.108-13.641,13.641v52.269H234.63
	c-7.534,0-13.641,6.108-13.641,13.641v96.397c0,7.533,6.107,13.641,13.641,13.641h75.952c7.534,0,13.641-6.108,13.641-13.641
	c0-7.533-6.107-13.641-13.641-13.641h-62.311v-69.115h97.662v168.279H166.068V236.885c0-9.382,3.71-24.959,7.939-33.335l8.898-17.62
	c0.022,0.012,0.044,0.023,0.064,0.035c0.3,0.171,0.6,0.352,0.906,0.548c0.061,0.04,0.123,0.08,0.184,0.121
	c0.276,0.179,0.554,0.368,0.84,0.569c0.049,0.034,0.098,0.067,0.147,0.102c0.319,0.225,0.649,0.465,0.992,0.716
	c0.102,0.075,0.207,0.153,0.312,0.231c0.33,0.244,0.664,0.494,1.023,0.763c5.785,4.324,13.708,10.247,28.318,10.247
	c14.611,0,22.536-5.923,28.322-10.247c4.427-3.309,6.445-4.818,11.989-4.818c5.54,0,7.559,1.509,11.982,4.817
	c5.787,4.324,13.709,10.249,28.323,10.249s22.538-5.924,28.324-10.249c4.424-3.308,6.443-4.817,11.982-4.817
	c0.548,0,1.086-0.041,1.616-0.105c0.145-0.016,0.286-0.044,0.43-0.065c0.402-0.06,0.799-0.138,1.189-0.232
	c0.141-0.034,0.28-0.068,0.419-0.108c0.432-0.12,0.857-0.261,1.27-0.422c0.078-0.029,0.156-0.055,0.233-0.086
	c0.499-0.203,0.984-0.434,1.45-0.694c0.071-0.04,0.136-0.086,0.207-0.125c0.381-0.22,0.748-0.456,1.104-0.711
	c0.131-0.093,0.258-0.19,0.385-0.288c0.304-0.235,0.597-0.482,0.881-0.739c0.111-0.101,0.224-0.196,0.33-0.3
	c0.371-0.361,0.724-0.739,1.052-1.142c0.053-0.064,0.098-0.135,0.15-0.201c0.281-0.356,0.542-0.727,0.787-1.11
	c0.035-0.057,0.08-0.106,0.116-0.164c0.042-0.068,0.071-0.142,0.112-0.211c0.22-0.37,0.42-0.749,0.604-1.14
	c0.046-0.1,0.098-0.196,0.143-0.296c0.218-0.494,0.412-1.001,0.572-1.525c0.007-0.025,0.012-0.05,0.019-0.075
	c0.141-0.472,0.252-0.956,0.342-1.45c0.029-0.154,0.048-0.31,0.071-0.464c0.053-0.364,0.093-0.731,0.116-1.105
	c0.012-0.183,0.023-0.366,0.027-0.55c0.003-0.113,0.016-0.224,0.016-0.337c0-0.273-0.025-0.539-0.041-0.808
	c-0.008-0.146-0.008-0.292-0.022-0.438c-0.049-0.537-0.126-1.065-0.235-1.582c-0.01-0.042-0.023-0.085-0.033-0.126
	c-0.106-0.484-0.243-0.958-0.4-1.421c-0.041-0.121-0.087-0.241-0.132-0.363c-0.151-0.408-0.321-0.806-0.51-1.195
	c-0.034-0.07-0.056-0.143-0.091-0.213l-33.129-65.656V71.006c3.17-2.499,5.212-6.364,5.212-10.712V13.641
	C320.877,6.108,314.77,0,307.236,0H204.767c-7.534,0-13.641,6.108-13.641,13.641V60.3c0,4.349,2.042,8.213,5.212,10.712v27.746
	l-33.127,65.652l0,0l-13.557,26.846c-6.093,12.07-10.868,32.114-10.868,45.632l0.001,261.472c0,7.533,6.107,13.641,13.641,13.641
	h207.145c7.534,0,13.641-6.108,13.641-13.641V236.888C373.215,229.354,367.108,223.246,359.574,223.246z M218.408,27.282h75.186
	v19.377h-75.186V27.282z M222.156,108.149c0.962-1.906,1.462-4.01,1.462-6.145V73.941h64.762v28.062
	c0,2.133,0.501,4.238,1.462,6.145l26.951,53.413c-0.091,0.048-0.171,0.1-0.261,0.147c-0.735,0.394-1.447,0.797-2.123,1.207
	c-0.071,0.044-0.138,0.087-0.209,0.131c-0.637,0.393-1.245,0.788-1.835,1.185c-0.12,0.082-0.241,0.161-0.36,0.241
	c-0.604,0.413-1.183,0.824-1.742,1.23c-0.146,0.106-0.285,0.209-0.428,0.314c-0.529,0.389-1.048,0.772-1.543,1.143
	c-4.425,3.309-6.445,4.818-11.989,4.818c-5.542,0-7.563-1.509-11.988-4.818c-5.785-4.324-13.708-10.247-28.318-10.247
	c-14.612,0-22.536,5.923-28.323,10.249c-4.425,3.308-6.445,4.817-11.988,4.817c-0.693,0-1.33-0.025-1.923-0.071
	c-4.158-0.334-6.188-1.851-10.058-4.746c-0.505-0.376-1.033-0.768-1.573-1.165c-0.13-0.094-0.254-0.186-0.385-0.281
	c-0.569-0.413-1.158-0.832-1.773-1.252c-0.105-0.072-0.214-0.143-0.321-0.216c-0.607-0.409-1.236-0.82-1.893-1.224
	c-0.056-0.034-0.108-0.068-0.164-0.102c-0.681-0.415-1.398-0.82-2.14-1.217c-0.089-0.048-0.166-0.098-0.255-0.145L222.156,108.149z" />
</svg>